Coordinates
version=1
nRows=4
nColumns=48
inDegrees=yes

Units are S.I. units (second, meters, Newtons, ...)
Angles are in degrees.

endheader
time	pelvis_tilt	pelvis_list	pelvis_rotation	pelvis_tx	pelvis_ty	pelvis_tz	hip_flexion_r	hip_adduction_r	hip_rotation_r	knee_angle_r	knee_adduction_r	knee_rotation_r	knee_anterior_posterior_r	knee_inferior_superior_r	knee_medial_lateral_r	ankle_angle_r	subtalar_angle_r	mtp_angle_r	hip_flexion_l	hip_adduction_l	hip_rotation_l	knee_angle_l	knee_adduction_l	knee_rotation_l	knee_anterior_posterior_l	knee_inferior_superior_l	knee_medial_lateral_l	ankle_angle_l	subtalar_angle_l	mtp_angle_l	lumbar_extension	lumbar_bending	lumbar_rotation	arm_flex_r	arm_add_r	arm_rot_r	elbow_flex_r	pro_sup_r	wrist_flex_r	wrist_dev_r	arm_flex_l	arm_add_l	arm_rot_l	elbow_flex_l	pro_sup_l	wrist_flex_l	wrist_dev_l
      0.67000000	     -8.62068390	      0.48623868	     -1.25284282	     -1.14860607	      1.00654921	      0.16640266	     14.88560944	     -1.69882221	     -5.40161507	    -14.31462965	      0.98440452	      4.11446608	      0.00404178	     -0.40000000	      0.00000000	     -8.17108490	      0.00000000	      0.00000000	     15.61641014	     -1.18037444	     -9.99316332	    -17.36537628	      0.98440452	      4.11446608	      0.00000000	     -0.40000000	      0.00000000	    -10.64794632	      0.00000000	      0.00000000	    -16.78948993	      0.92585135	      1.84038039	     -3.29825746	    -19.28603023	     21.01507889	     43.40764372	     80.94166385	      0.00000000	      0.00000000	     -5.60438362	    -19.31218799	     19.15516099	     51.32873428	     83.90527602	      0.00000000	      0.00000000
      0.68000000	     -8.68189408	      0.40820903	     -1.16949682	     -1.14918401	      1.00636843	      0.16761238	     14.94662913	     -1.54416511	     -5.41809056	    -14.30567489	      0.98440452	      4.11446608	      0.00423804	     -0.40000000	      0.00000000	     -8.13769276	      0.00000000	      0.00000000	     15.98722614	     -1.33225297	     -9.75066216	    -17.80289233	      0.98440452	      4.11446608	      0.00000000	     -0.40000000	      0.00000000	    -10.72226321	      0.00000000	      0.00000000	    -17.04575871	      1.02463653	      1.98650600	     -3.29781150	    -19.41601150	     21.01961472	     43.56637223	     80.93337622	      0.00000000	      0.00000000	     -5.55619201	    -19.31646841	     19.04354582	     51.69167518	     83.92253643	      0.00000000	      0.00000000
      0.69000000	     -9.07199651	     -0.02885969	     -0.82966701	     -1.15011047	      1.00557525	      0.16857080	     15.33506550	     -1.06303230	     -5.76326128	    -14.20664725	      0.98440452	      4.11446608	      0.00408635	     -0.40000000	      0.00000000	     -8.03692873	      0.00000000	      0.00000000	     16.91913437	     -1.85160257	     -9.31244971	    -18.54737680	      0.98440452	      4.11446608	      0.00000000	     -0.40000000	      0.00000000	    -10.67409942	      0.00000000	      0.00000000	    -16.95145734	      1.60485190	      1.86694990	     -3.34117570	    -19.57536802	     21.01702211	     43.82715945	     80.82762257	      0.00000000	      0.00000000	     -5.74208144	    -19.20658495	     18.59666520	     52.17913514	     83.89611414	      0.00000000	      0.00000000
      0.70000000	     -9.06781083	     -0.00930093	     -0.83341577	     -1.15061193	      1.00550881	      0.16987460	     15.39652066	     -1.00675424	     -5.74077838	    -14.28034604	      0.98440452	      4.11446608	      0.00403132	     -0.40000000	      0.00000000	     -8.07978506	      0.00000000	      0.00000000	     17.12020166	     -1.89843755	     -9.10979562	    -18.85922260	      0.98440452	      4.11446608	      0.00000000	     -0.40000000	      0.00000000	    -10.71471179	      0.00000000	      0.00000000	    -17.27793862	      1.59645941	      2.04723061	     -3.26821287	    -19.65967861	     21.03946571	     43.80057786	     80.82536944	      0.00000000	      0.00000000	     -5.63929549	    -19.21867062	     18.56957404	     52.43156836	     83.91562530	      0.00000000	      0.00000000
